<?xml version="1.0" standalone="no"?>
<!DOCTYPE svg PUBLIC "-//W3C//DTD SVG 20010904//EN"
 "http://www.w3.org/TR/2001/REC-SVG-20010904/DTD/svg10.dtd">
<svg version="1.0" xmlns="http://www.w3.org/2000/svg"
 width="559.000000pt" height="110.000000pt" viewBox="0 0 559.000000 110.000000"
 preserveAspectRatio="xMidYMid meet">

<g transform="translate(0.000000,110.000000) scale(0.100000,-0.100000)"
fill="#000000" stroke="none">
<path d="M406 735 l-78 -135 78 -135 c43 -74 81 -131 85 -127 13 13 149 254
149 263 0 10 -136 247 -149 262 -4 4 -42 -54 -85 -128z"/>
<path d="M253 468 c-24 -32 -145 -249 -141 -254 3 -2 73 -3 156 -2 l151 3 -73
128 c-40 70 -75 130 -78 133 -3 2 -10 -1 -15 -8z"/>
<path d="M628 345 l-77 -135 160 0 159 0 -27 48 c-16 26 -50 87 -78 135 -27
48 -52 87 -55 87 -3 0 -40 -61 -82 -135z"/>
</g>
</svg>
