<?xml version="1.0" standalone="no"?>
<!DOCTYPE svg PUBLIC "-//W3C//DTD SVG 20010904//EN"
 "http://www.w3.org/TR/2001/REC-SVG-20010904/DTD/svg10.dtd">
<svg version="1.0" xmlns="http://www.w3.org/2000/svg"
 width="605.000000pt" height="235.000000pt" viewBox="0 0 605.000000 235.000000"
 preserveAspectRatio="xMidYMid meet">

<g transform="translate(0.000000,235.000000) scale(0.100000,-0.100000)"
fill="#000000" stroke="none">
<path d="M2861 1915 l-152 -264 147 -253 c80 -139 149 -257 153 -261 6 -6 292
474 303 510 2 5 -65 126 -148 270 l-150 261 -153 -263z"/>
<path d="M3295 1166 l-151 -261 154 -3 c84 -1 220 -1 302 0 l149 3 -150 260
c-83 143 -152 261 -152 261 -1 1 -70 -116 -152 -260z"/>
<path d="M2430 1168 c-80 -138 -146 -255 -148 -260 -2 -4 132 -8 297 -8 166 0
301 2 301 5 0 10 -295 515 -300 515 -3 0 -70 -113 -150 -252z"/>
<path d="M665 618 c-7 -18 -38 -86 -68 -150 -74 -157 -74 -158 -42 -158 20 0
28 7 36 30 l11 30 83 0 c82 0 83 0 95 -30 10 -23 19 -30 41 -30 l29 0 -24 53
c-95 211 -132 286 -139 287 -4 0 -14 -15 -22 -32z m55 -137 l29 -61 -60 0
c-45 0 -60 3 -56 13 36 86 51 117 54 113 3 -2 18 -32 33 -65z"/>
<path d="M1003 636 c-37 -17 -53 -43 -53 -85 0 -40 26 -65 97 -97 32 -13 61
-30 65 -37 33 -52 -52 -88 -122 -52 -27 14 -30 14 -41 -6 -13 -25 -5 -33 51
-49 93 -27 170 14 170 90 0 45 -30 76 -102 105 -28 11 -56 28 -61 36 -26 41
28 70 95 52 34 -9 40 -8 48 8 8 14 6 21 -9 29 -35 18 -104 21 -138 6z"/>
<path d="M1855 638 c-3 -13 -45 -306 -45 -320 0 -5 11 -8 24 -8 23 0 25 5 36
88 17 135 18 135 73 53 26 -39 49 -71 51 -71 2 0 24 32 47 70 24 39 46 70 50
70 3 0 12 -42 19 -92 15 -115 17 -118 46 -118 20 0 23 4 19 23 -2 12 -14 87
-25 166 -19 133 -25 161 -33 150 -2 -2 -27 -42 -57 -89 -30 -47 -57 -89 -61
-94 -4 -5 -35 35 -69 88 -34 53 -64 96 -66 96 -3 0 -6 -6 -9 -12z"/>
<path d="M2364 534 c-31 -65 -67 -143 -80 -171 l-23 -53 28 0 c22 0 31 7 41
30 12 30 13 30 95 30 l83 0 11 -30 c7 -23 16 -30 35 -30 15 0 26 4 26 8 0 12
-140 315 -151 326 -5 6 -32 -40 -65 -110z m113 -111 c-3 -2 -29 -3 -59 -1
l-54 3 30 65 30 65 29 -64 c15 -35 26 -65 24 -68z"/>
<path d="M2690 480 l0 -170 31 0 30 0 -3 110 c-2 61 0 110 3 110 4 0 50 -48
104 -107 53 -60 101 -109 106 -111 5 -2 9 70 9 162 l0 166 -25 0 -25 0 0 -105
c0 -58 -3 -105 -7 -104 -5 0 -52 50 -106 110 -55 60 -103 109 -108 109 -5 0
-9 -76 -9 -170z"/>
<path d="M3231 628 c-5 -13 -36 -80 -69 -149 -80 -168 -80 -169 -47 -169 20 0
28 7 36 30 l11 30 83 0 c82 0 83 0 95 -30 10 -23 19 -30 41 -30 l29 0 -24 53
c-95 210 -132 286 -139 287 -4 0 -11 -10 -16 -22z m52 -150 l26 -58 -61 0
c-44 0 -59 3 -55 13 38 92 51 117 57 110 4 -4 19 -34 33 -65z"/>
<path d="M3590 628 c-85 -43 -114 -146 -67 -238 43 -86 155 -114 241 -61 l36
23 0 74 0 74 -65 0 c-63 0 -65 -1 -65 -25 0 -23 4 -25 45 -25 45 0 45 0 45
-34 0 -43 -29 -66 -83 -66 -52 0 -91 22 -111 64 -43 92 12 186 109 186 21 0
50 -8 66 -17 26 -16 31 -16 39 -3 16 24 12 30 -32 50 -57 26 -104 25 -158 -2z"/>
<path d="M4300 646 c0 -11 -41 -294 -46 -314 -4 -21 -1 -23 23 -20 28 3 28 5
42 106 7 56 17 102 20 102 4 0 26 -31 50 -70 24 -38 46 -70 48 -70 1 0 24 32
50 71 55 82 56 82 73 -53 11 -83 13 -88 36 -88 13 0 24 3 24 8 1 29 -46 332
-51 332 -4 0 -35 -44 -69 -97 l-62 -97 -62 97 c-52 82 -76 111 -76 93z"/>
<path d="M5080 480 l0 -170 25 0 c24 0 24 0 27 116 l3 117 105 -117 c57 -64
108 -116 112 -116 4 0 8 74 8 165 l0 165 -25 0 c-24 0 -24 0 -27 -110 l-3
-110 -103 115 c-57 63 -107 115 -113 115 -5 0 -9 -70 -9 -170z"/>
<path d="M240 615 c0 -23 3 -25 50 -25 l50 0 0 -140 0 -140 25 0 25 0 0 140 0
140 45 0 c41 0 45 2 45 25 l0 25 -120 0 -120 0 0 -25z"/>
<path d="M1300 475 l0 -165 25 0 c24 0 25 2 25 77 l0 77 38 -45 c88 -104 96
-111 127 -107 l29 3 -67 77 c-37 42 -67 80 -67 85 0 4 25 40 56 78 31 39 58
73 61 78 2 4 -9 7 -25 7 -25 0 -39 -12 -88 -75 l-59 -75 -3 75 c-3 72 -4 75
-27 75 l-25 0 0 -165z"/>
<path d="M3940 475 l0 -165 105 0 105 0 0 25 c0 25 -1 25 -80 25 l-80 0 0 45
0 45 65 0 c63 0 65 1 65 25 0 24 -2 25 -65 25 l-65 0 0 45 0 45 75 0 c73 0 75
1 75 25 l0 25 -100 0 -100 0 0 -165z"/>
<path d="M4750 475 l0 -165 105 0 105 0 0 25 c0 25 -1 25 -80 25 l-80 0 0 45
0 45 65 0 c63 0 65 1 65 25 0 24 -2 25 -65 25 l-65 0 0 45 0 45 75 0 c73 0 75
1 75 25 l0 25 -100 0 -100 0 0 -165z"/>
<path d="M5480 615 c0 -23 4 -25 45 -25 l45 0 0 -140 0 -140 25 0 25 0 0 140
0 140 50 0 c47 0 50 2 50 25 l0 25 -120 0 -120 0 0 -25z"/>
</g>
</svg>
