<?xml version="1.0" standalone="no"?>
<!DOCTYPE svg PUBLIC "-//W3C//DTD SVG 20010904//EN"
 "http://www.w3.org/TR/2001/REC-SVG-20010904/DTD/svg10.dtd">
<svg version="1.0" xmlns="http://www.w3.org/2000/svg"
 width="621.000000pt" height="232.000000pt" viewBox="0 0 621.000000 232.000000"
 preserveAspectRatio="xMidYMid meet">

<g transform="translate(0.000000,232.000000) scale(0.100000,-0.100000)"
fill="#000000" stroke="none">
<path d="M0 1565 l0 -755 135 0 135 0 0 -30 c0 -29 -1 -30 -50 -30 l-50 0 0
-155 0 -155 -40 0 -40 0 0 155 0 155 -45 0 -45 0 0 -375 0 -375 3105 0 3105 0
0 1160 0 1160 -3105 0 -3105 0 0 -755z m3203 392 l115 -198 -120 -210 -121
-209 -115 198 c-63 108 -116 203 -119 210 -7 16 228 425 238 415 4 -4 59 -97
122 -206z m-307 -657 l72 -125 -230 -3 c-127 -1 -233 -1 -235 1 -2 2 49 95
113 206 l117 202 45 -78 c25 -43 78 -134 118 -203z m643 76 c61 -106 111 -196
111 -200 0 -3 -103 -6 -230 -6 -126 0 -230 3 -230 7 0 11 224 393 230 393 4 0
57 -87 119 -194z m-2948 -737 c46 -100 86 -186 87 -190 2 -5 -13 -9 -32 -9
-32 0 -39 5 -53 35 l-17 35 -83 0 -83 0 -17 -35 c-14 -30 -22 -35 -50 -35 -18
0 -33 4 -33 9 0 4 23 57 51 117 28 60 66 142 85 182 18 39 39 72 47 72 8 0 48
-75 98 -181z m399 165 c42 -17 48 -28 26 -57 -12 -16 -16 -16 -49 -2 -47 20
-70 19 -97 -3 -33 -27 -16 -50 64 -86 88 -41 109 -63 109 -116 0 -93 -120
-140 -230 -90 -48 21 -50 26 -28 58 15 20 18 20 38 8 38 -25 94 -30 122 -12
48 32 27 69 -57 100 -114 42 -143 136 -59 193 41 28 103 30 161 7z m901 -84
c35 -55 66 -100 69 -100 3 0 34 45 69 100 34 55 69 100 77 100 15 0 16 -6 44
-203 27 -184 27 -177 -14 -177 l-33 0 -13 98 c-7 53 -16 103 -20 111 -5 9 -21
-9 -51 -58 -24 -38 -51 -70 -59 -70 -8 0 -35 31 -59 70 -24 39 -47 67 -51 62
-4 -4 -13 -54 -20 -110 l-12 -103 -34 0 c-41 0 -41 -7 -14 177 28 197 29 203
44 203 8 0 43 -45 77 -100z m626 -17 c31 -65 70 -151 89 -190 l33 -73 -39 0
c-35 0 -40 3 -51 35 l-13 35 -87 0 -87 0 -12 -35 c-11 -32 -15 -35 -51 -35
-34 0 -39 2 -31 18 5 9 44 95 88 189 43 95 85 173 92 173 7 0 38 -53 69 -117z
m370 -2 l108 -119 3 114 3 114 39 0 40 0 0 -185 c0 -176 -1 -185 -19 -185 -12
0 -61 46 -128 120 l-108 119 -3 -119 -3 -120 -34 0 -35 0 0 190 c0 158 2 190
14 190 8 0 63 -53 123 -119z m583 -58 c45 -98 85 -184 87 -190 4 -9 -6 -13
-31 -13 -32 0 -38 5 -53 35 l-17 35 -83 0 -84 0 -15 -35 c-12 -31 -19 -35 -49
-35 -19 0 -35 2 -35 5 0 3 25 61 56 128 31 67 70 150 85 185 16 34 35 62 43
62 7 0 49 -77 96 -177z m480 154 c50 -26 55 -35 35 -61 -14 -18 -15 -18 -58 3
-51 25 -75 26 -122 7 -100 -42 -98 -201 2 -243 72 -30 143 2 143 64 l0 33 -50
0 c-47 0 -50 2 -50 25 0 25 1 25 80 25 l80 0 0 -78 c0 -88 -7 -99 -73 -127
-68 -28 -169 -14 -220 33 -48 43 -73 145 -52 214 33 108 179 161 285 105z
m696 -77 c36 -55 67 -100 69 -100 2 0 33 45 69 100 36 55 71 100 79 100 9 0
19 -46 36 -162 12 -90 25 -175 28 -190 5 -26 3 -28 -30 -28 -40 0 -39 -3 -58
138 l-12 93 -50 -75 c-27 -42 -55 -76 -62 -76 -7 0 -35 34 -62 76 l-50 75 -12
-93 c-19 -141 -18 -138 -58 -138 -31 0 -35 2 -30 23 3 12 16 97 28 190 17 120
27 167 36 167 8 0 43 -45 79 -100z m931 -19 l108 -119 3 114 3 114 39 0 40 0
0 -185 c0 -176 -1 -185 -19 -185 -12 0 -61 46 -128 120 l-108 119 -3 -119 -3
-120 -34 0 -35 0 0 190 c0 158 2 190 14 190 8 0 63 -53 123 -119z m-4335 32
l3 -78 63 78 c60 73 65 77 104 77 l40 0 -36 -45 c-20 -25 -52 -65 -71 -89 -19
-23 -35 -46 -35 -49 0 -3 34 -45 76 -94 l75 -88 -38 -3 c-36 -3 -42 0 -110 75
l-72 78 -1 -77 0 -78 -35 0 -35 0 0 185 0 185 35 0 34 0 3 -77z m3148 47 l0
-30 -85 0 -85 0 0 -45 0 -45 75 0 75 0 0 -30 0 -30 -75 0 -75 0 0 -50 0 -50
85 0 85 0 0 -30 0 -30 -125 0 -125 0 0 185 0 185 125 0 125 0 0 -30z m910 0
l0 -30 -85 0 -85 0 0 -45 0 -45 75 0 75 0 0 -30 0 -30 -75 0 -75 0 0 -50 0
-50 90 0 90 0 0 -30 0 -30 -125 0 -125 0 0 185 0 185 120 0 120 0 0 -30z m870
0 c0 -30 -1 -30 -55 -30 l-55 0 0 -155 0 -155 -35 0 -35 0 0 155 0 155 -55 0
c-54 0 -55 0 -55 30 l0 30 145 0 145 0 0 -30z"/>
<path d="M482 680 c-6 -14 -19 -46 -31 -72 l-20 -48 59 0 c33 0 60 2 60 4 0 2
-13 35 -29 73 -28 64 -30 67 -39 43z"/>
<path d="M2417 628 c-15 -34 -25 -63 -23 -65 2 -2 29 -3 59 -1 l55 3 -26 62
c-15 35 -29 63 -32 63 -3 0 -18 -28 -33 -62z"/>
<path d="M3343 630 l-31 -70 59 0 c32 0 59 4 59 9 0 4 -13 36 -28 70 l-28 61
-31 -70z"/>
</g>
</svg>
